<svg width="85" height="85" viewBox="0 0 85 85" fill="none" xmlns="http://www.w3.org/2000/svg">
<path d="M50.6459 76.8542C48.1667 77.5625 45.3334 77.9167 42.5 77.9167C23.0209 77.9167 7.08337 61.9792 7.08337 42.5C7.08337 23.0209 23.0209 7.08337 42.5 7.08337C47.1042 7.08337 51.7084 8.14587 55.9584 9.56254L50.2917 15.2292C47.8125 14.5209 45.3334 14.1667 42.5 14.1667C26.9167 14.1667 14.1667 26.9167 14.1667 42.5C14.1667 58.0834 26.9167 70.8334 42.5 70.8334C43.9167 70.8334 45.6875 70.8334 47.1042 70.4792C47.8125 72.9584 49.2292 75.0834 50.6459 76.8542ZM27.9792 35.7709L23.0209 40.7292L38.9584 56.6667L74.375 21.25L69.4167 16.2917L38.9584 46.75L27.9792 35.7709ZM63.75 49.5834V60.2084H53.125V67.2917H63.75V77.9167H70.8334V67.2917H81.4584V60.2084H70.8334V49.5834H63.75Z" fill="white"/>
</svg>
