<svg width="30" height="31" viewBox="0 0 30 31" fill="none" xmlns="http://www.w3.org/2000/svg">
<path fill-rule="evenodd" clip-rule="evenodd" d="M15 30.5801C23.2843 30.5801 30 23.8643 30 15.5801C30 7.29582 23.2843 0.580078 15 0.580078C6.71574 0.580078 0 7.29582 0 15.5801C0 23.8643 6.71574 30.5801 15 30.5801ZM20.9288 9.27792C19.3852 7.73238 17.3322 6.88089 15.145 6.88008C10.6385 6.88008 6.97038 10.5476 6.96876 15.0557C6.96822 16.4968 7.34469 17.9035 8.06004 19.1431L6.9 23.3801L11.2343 22.2432C12.4285 22.8947 13.7732 23.2379 15.1414 23.2385H15.1447C19.6509 23.2385 23.319 19.5704 23.3209 15.0625C23.3222 12.8775 22.4727 10.8235 20.9288 9.27792ZM18.8726 16.7677C18.6682 16.6654 17.664 16.1713 17.4765 16.1031C17.2894 16.0349 17.153 16.0008 17.0168 16.2054C16.8807 16.4101 16.4892 16.87 16.37 17.0064C16.2508 17.1428 16.1315 17.1598 15.9275 17.0575C15.8941 17.0407 15.8485 17.021 15.7923 16.9966C15.5046 16.8718 14.9372 16.6257 14.2845 16.0434C13.6772 15.5015 13.2672 14.8326 13.148 14.6282C13.0287 14.4236 13.1351 14.3131 13.2374 14.2114C13.2988 14.1502 13.3692 14.0644 13.4396 13.9787C13.4747 13.9359 13.5098 13.8931 13.5438 13.8534C13.6304 13.7523 13.668 13.6756 13.7191 13.5715C13.7282 13.5529 13.7378 13.5334 13.7482 13.5127C13.8164 13.3763 13.7823 13.257 13.7312 13.1547C13.6972 13.0864 13.5035 12.6151 13.328 12.1878C13.2407 11.9753 13.1578 11.7736 13.1013 11.6378C12.9548 11.2862 12.8065 11.2871 12.6874 11.2878C12.6716 11.2879 12.6563 11.288 12.6416 11.2873C12.5226 11.2813 12.3862 11.2802 12.2501 11.2802C12.1139 11.2802 11.8927 11.3312 11.7053 11.5358C11.6932 11.549 11.6797 11.5634 11.665 11.5791C11.4521 11.8063 10.9902 12.2995 10.9902 13.2401C10.9902 14.2433 11.7186 15.2125 11.8237 15.3524L11.8245 15.3534C11.8311 15.3623 11.843 15.3793 11.86 15.4037C12.1039 15.7535 13.3985 17.6108 15.3144 18.4382C15.802 18.6488 16.1823 18.7743 16.4791 18.8684C16.9685 19.024 17.4138 19.0021 17.766 18.9495C18.1586 18.8908 18.9746 18.4554 19.1448 17.9782C19.3151 17.5011 19.3151 17.0918 19.2641 17.0067C19.2229 16.9378 19.1264 16.8911 18.9833 16.8219C18.949 16.8054 18.912 16.7875 18.8726 16.7677Z" fill="#3F4D63"/>
</svg>
