<svg width="143" height="38" viewBox="0 0 143 38" fill="none" xmlns="http://www.w3.org/2000/svg">
<path d="M21.484 26.56C21.652 27.184 22.084 27.496 22.78 27.496C23.236 27.496 23.836 27.364 24.58 27.1V28H15.904V27.1C16.6 27.34 17.2 27.46 17.704 27.46C18.28 27.46 18.568 27.256 18.568 26.848C18.568 26.728 18.556 26.632 18.532 26.56L15.292 16.3H7.66C6.796 19.18 5.968 22.06 5.176 24.94L4.924 25.84C4.876 25.984 4.852 26.164 4.852 26.38C4.852 27.076 5.284 27.424 6.148 27.424C6.628 27.424 7.18 27.316 7.804 27.1V28H0.28V27.1C0.856 27.316 1.408 27.424 1.936 27.424C2.656 27.424 3.172 27.136 3.484 26.56C3.652 26.224 3.796 25.876 3.916 25.516L11.548 0.639998H13.636L21.484 26.56ZM7.84 15.652H15.076L11.332 3.844L7.84 15.652ZM43.2457 26.56C43.4137 27.184 43.8457 27.496 44.5417 27.496C44.9977 27.496 45.5977 27.364 46.3417 27.1V28H37.6657V27.1C38.3617 27.34 38.9617 27.46 39.4657 27.46C40.0417 27.46 40.3297 27.256 40.3297 26.848C40.3297 26.728 40.3177 26.632 40.2937 26.56L37.0537 16.3H29.4217C28.5577 19.18 27.7297 22.06 26.9377 24.94L26.6857 25.84C26.6377 25.984 26.6137 26.164 26.6137 26.38C26.6137 27.076 27.0457 27.424 27.9097 27.424C28.3897 27.424 28.9417 27.316 29.5657 27.1V28H22.0417V27.1C22.6177 27.316 23.1697 27.424 23.6977 27.424C24.4177 27.424 24.9337 27.136 25.2457 26.56C25.4137 26.224 25.5577 25.876 25.6777 25.516L33.3097 0.639998H35.3977L43.2457 26.56ZM29.6017 15.652H36.8377L33.0937 3.844L29.6017 15.652ZM67.7702 28.72C65.5382 28.72 63.4982 28.084 61.6502 26.812C59.8262 25.516 58.3742 23.8 57.2942 21.664C56.2382 19.504 55.7102 17.176 55.7102 14.68C55.7102 12.16 56.2022 9.832 57.1862 7.696C58.1942 5.536 59.5862 3.82 61.3622 2.548C63.1622 1.276 65.1902 0.639998 67.4462 0.639998C69.0542 0.639998 70.6022 1.072 72.0902 1.936C73.6022 2.8 74.7422 3.748 75.5102 4.78L76.0502 1.252H76.6622V9.28H75.5102C75.5102 7.96 75.1982 6.7 74.5742 5.5C73.9502 4.276 73.0022 3.28 71.7302 2.512C70.4822 1.744 68.9342 1.36 67.0862 1.36C65.4302 1.36 63.9662 1.972 62.6942 3.196C61.4222 4.42 60.4502 6.04 59.7782 8.056C59.1062 10.072 58.7702 12.232 58.7702 14.536C58.7702 16.96 59.0822 19.192 59.7062 21.232C60.3302 23.248 61.3262 24.88 62.6942 26.128C64.0862 27.376 65.8382 28 67.9502 28C69.4862 28 70.8062 27.58 71.9102 26.74C73.0142 25.9 73.8422 24.844 74.3942 23.572C74.9702 22.276 75.2582 20.968 75.2582 19.648C75.2582 18.568 75.1742 17.74 75.0062 17.164C74.8622 16.588 74.5742 16.3 74.1422 16.3L71.5142 16.264C70.0502 16.264 69.1862 16.336 68.9222 16.48C68.6582 16.624 68.5262 16.912 68.5262 17.344C68.5502 17.776 68.5622 18.076 68.5622 18.244C68.5622 18.772 68.6102 19.18 68.7062 19.468C68.8022 19.732 69.0182 19.876 69.3542 19.9V20.368H67.9502V15.58H77.6342V24.472C77.2022 24.472 76.6742 24.64 76.0502 24.976C75.6422 25.216 75.2102 25.492 74.7542 25.804C73.4822 26.668 72.2942 27.376 71.1902 27.928C70.0862 28.456 68.9462 28.72 67.7702 28.72ZM89.8016 13.492C89.8016 13.78 89.7536 14.104 89.6576 14.464C89.5616 14.824 89.5016 15.04 89.4776 15.112C89.2856 15.736 89.1896 16.156 89.1896 16.372C89.1896 16.852 89.5376 17.092 90.2336 17.092V17.452C89.2496 17.452 88.5416 17.2 88.1096 16.696C87.7016 16.192 87.4976 15.544 87.4976 14.752C87.4976 14.368 87.5336 13.996 87.6056 13.636C87.7496 12.94 87.8216 12.4 87.8216 12.016C87.8216 11.608 87.7376 11.332 87.5696 11.188C87.4256 11.02 87.1856 10.936 86.8496 10.936C86.1536 10.936 85.6136 11.68 85.2296 13.168C84.8456 14.632 84.6536 16.348 84.6536 18.316V25.84C84.6536 26.464 84.7016 26.92 84.7976 27.208C84.9176 27.496 85.1696 27.64 85.5536 27.64C85.7456 27.64 86.0456 27.58 86.4536 27.46V28H80.5136V27.46C80.9216 27.58 81.2216 27.64 81.4136 27.64C81.8456 27.64 82.1216 27.496 82.2416 27.208C82.3616 26.896 82.4216 26.44 82.4216 25.84V13.024C82.0616 13.144 81.6776 13.204 81.2696 13.204C81.1016 13.204 80.8496 13.18 80.5136 13.132V12.16H80.8376C80.8376 12.328 80.9216 12.472 81.0896 12.592C81.2816 12.712 81.4976 12.772 81.7376 12.772C82.0976 12.772 82.4096 12.64 82.6736 12.376C82.9376 12.112 83.2496 11.716 83.6096 11.188H83.9696L84.0056 14.104H84.3656C84.6536 12.856 85.0496 11.944 85.5536 11.368C86.0816 10.768 86.6336 10.468 87.2096 10.468C88.0496 10.468 88.6856 10.78 89.1176 11.404C89.5736 12.028 89.8016 12.724 89.8016 13.492ZM99.1821 28.36C96.6381 28.36 94.8021 27.556 93.6741 25.948C92.5701 24.316 92.0181 22.132 92.0181 19.396C92.0181 16.876 92.5821 14.764 93.7101 13.06C94.8381 11.332 96.6621 10.468 99.1821 10.468C101.702 10.468 103.526 11.332 104.654 13.06C105.806 14.764 106.382 16.876 106.382 19.396C106.382 22.132 105.818 24.316 104.69 25.948C103.562 27.556 101.726 28.36 99.1821 28.36ZM99.1821 27.928C100.814 27.928 102.002 27.148 102.746 25.588C103.49 24.004 103.862 21.94 103.862 19.396C103.862 17.02 103.478 15.016 102.71 13.384C101.942 11.728 100.766 10.9 99.1821 10.9C97.5981 10.9 96.4221 11.728 95.6541 13.384C94.9101 15.016 94.5381 17.02 94.5381 19.396C94.5381 21.94 94.9101 24.004 95.6541 25.588C96.3981 27.148 97.5741 27.928 99.1821 27.928ZM114.861 28.36C113.973 28.36 113.145 28.132 112.377 27.676C111.609 27.196 110.997 26.524 110.541 25.66C110.109 24.796 109.893 23.776 109.893 22.6L109.857 12.844L109.317 12.88C109.173 12.88 108.909 12.856 108.525 12.808V11.836H108.849C108.849 12.004 108.933 12.148 109.101 12.268C109.293 12.388 109.509 12.448 109.749 12.448C110.085 12.448 110.385 12.316 110.649 12.052C110.913 11.788 111.237 11.38 111.621 10.828H112.269V11.116L112.233 23.032C112.233 24.76 112.461 26.008 112.917 26.776C113.373 27.52 114.129 27.892 115.185 27.892C116.265 27.892 117.189 27.544 117.957 26.848C118.725 26.128 119.289 25.228 119.649 24.148C120.033 23.068 120.225 21.964 120.225 20.836V12.844L119.685 12.88C119.541 12.88 119.277 12.856 118.893 12.808V11.836H119.217C119.217 12.004 119.301 12.148 119.469 12.268C119.661 12.388 119.877 12.448 120.117 12.448C120.453 12.448 120.753 12.316 121.017 12.052C121.281 11.788 121.605 11.38 121.989 10.828H122.637V25.84C122.637 26.464 122.685 26.92 122.781 27.208C122.901 27.496 123.153 27.64 123.537 27.64C123.729 27.64 124.029 27.58 124.437 27.46V28H120.513V24.436H120.153C119.601 25.564 118.881 26.5 117.993 27.244C117.105 27.988 116.061 28.36 114.861 28.36ZM126.252 36.82C126.66 36.94 126.96 37 127.152 37C127.584 37 127.86 36.844 127.98 36.532C128.1 36.244 128.16 35.8 128.16 35.2V13.06C127.8 13.18 127.416 13.24 127.008 13.24C126.84 13.24 126.588 13.216 126.252 13.168V12.196H126.576C126.576 12.364 126.66 12.508 126.828 12.628C127.02 12.748 127.236 12.808 127.476 12.808C127.812 12.808 128.112 12.676 128.376 12.412C128.64 12.148 128.964 11.74 129.348 11.188H130.428V13.456H131.076C132.06 11.464 133.668 10.468 135.9 10.468C138.132 10.468 139.74 11.38 140.724 13.204C141.708 15.004 142.2 17.308 142.2 20.116C142.2 21.604 141.96 22.972 141.48 24.22C141 25.468 140.28 26.476 139.32 27.244C138.384 27.988 137.232 28.36 135.864 28.36C134.712 28.36 133.716 28.024 132.876 27.352C132.036 26.68 131.364 25.804 130.86 24.724H130.284L130.248 34.12V35.2C130.248 35.824 130.296 36.28 130.392 36.568C130.512 36.856 130.764 37 131.148 37C131.34 37 131.64 36.94 132.048 36.82V37.36H126.252V36.82ZM130.716 19.54C130.716 20.692 130.872 21.916 131.184 23.212C131.52 24.508 132.036 25.624 132.732 26.56C133.428 27.472 134.292 27.928 135.324 27.928C136.812 27.928 137.904 27.124 138.6 25.516C139.32 23.908 139.68 21.928 139.68 19.576C139.68 17.176 139.332 15.172 138.636 13.564C137.94 11.932 136.812 11.116 135.252 11.116C133.524 11.116 132.336 11.908 131.688 13.492C131.04 15.052 130.716 17.068 130.716 19.54Z" fill="white"/>
</svg>
