<svg width="85" height="85" viewBox="0 0 85 85" fill="none" xmlns="http://www.w3.org/2000/svg">
<path d="M63.75 0H34.5312C31.5988 0 29.2188 2.37734 29.2188 5.3125H58.4375V26.5625H79.6875V69.0625H61.0938V74.375H79.6875C82.6227 74.375 85 71.9977 85 69.0625V21.25L63.75 0ZM63.75 21.25V7.51188L77.4855 21.25H63.75ZM5.3125 10.625C2.37734 10.625 0 13.005 0 15.9375V79.6875C0 82.6227 2.37734 85 5.3125 85H50.4688C53.4039 85 55.7812 82.6227 55.7812 79.6875V31.875L34.5312 10.6223L5.3125 10.625ZM50.4688 79.6875H5.3125V15.9375H29.2188V37.1875H50.4688V79.6875ZM34.5312 31.875V18.1369L48.2667 31.875H34.5312Z" fill="white" stroke="white" stroke-width="0.008"/>
</svg>
