<svg width="30" height="31" viewBox="0 0 30 31" fill="none" xmlns="http://www.w3.org/2000/svg">
<path fill-rule="evenodd" clip-rule="evenodd" d="M15 30.5801C23.2843 30.5801 30 23.8643 30 15.5801C30 7.29582 23.2843 0.580078 15 0.580078C6.71574 0.580078 0 7.29582 0 15.5801C0 23.8643 6.71574 30.5801 15 30.5801ZM7.86804 10.8345C7.9593 10.5423 8.15712 10.3266 8.42508 10.227L8.54961 10.1807L14.9934 10.1802C21.3956 10.1797 21.438 10.1799 21.5576 10.2202C21.8469 10.3177 22.0621 10.5647 22.1516 10.902L22.1799 11.0087L21.6485 11.3899C20.9099 11.9199 19.5951 12.8649 18.9929 13.2986C18.7154 13.4985 18.3094 13.7903 18.0907 13.9472C17.4598 14.3996 16.8039 14.8708 16.3234 15.2166C15.2286 16.0045 15.0161 16.1552 15 16.1552C14.9838 16.1552 14.7549 15.9928 13.6488 15.1964C13.1644 14.8476 12.6092 14.449 11.909 13.9473C11.6901 13.7905 11.2592 13.4804 10.9513 13.2583C10.6434 13.0362 10.2187 12.7306 10.0073 12.5791C9.79602 12.4276 9.30246 12.0729 8.91054 11.7909C8.51862 11.5089 8.11674 11.2208 8.01747 11.1508C7.81737 11.0095 7.81497 11.0044 7.86804 10.8345ZM7.82313 18.9892C7.80465 19.0011 7.8 18.316 7.8 15.5911C7.8 13.714 7.80366 12.1782 7.80813 12.1782C7.81263 12.1782 8.12703 12.402 8.50686 12.6754C9.18522 13.1638 9.54303 13.4212 10.5208 14.1236C11.1719 14.5914 11.7384 14.9984 12.2236 15.3472C12.4425 15.5045 12.6216 15.6435 12.6216 15.656C12.6216 15.6775 12.3785 15.8499 11.437 16.4962C11.2131 16.6499 10.8091 16.9282 10.5393 17.1147C10.2696 17.3011 9.60741 17.7576 9.06786 18.129C8.52834 18.5004 8.03274 18.8425 7.96659 18.8892C7.90041 18.936 7.83588 18.981 7.82313 18.9892ZM20.7933 13.18C20.9816 13.0454 21.3689 12.7657 21.654 12.5583C21.939 12.351 22.1785 12.1806 22.1861 12.1798C22.1938 12.1789 22.2 13.714 22.2 15.5911C22.2 18.316 22.1954 19.0011 22.1769 18.9892C22.1642 18.981 22.0996 18.9361 22.0334 18.8895C21.9673 18.8428 21.7049 18.6617 21.4504 18.487C21.1959 18.3123 20.946 18.1396 20.8951 18.1032C20.8442 18.0668 20.6735 17.9485 20.5157 17.8404C20.3579 17.7323 20.1205 17.5691 19.9882 17.4778C19.8558 17.3865 19.3478 17.0365 18.8591 16.6999C17.4386 15.7215 17.3784 15.6791 17.3784 15.6563C17.3784 15.6335 17.4446 15.5847 18.5908 14.7621C18.9827 14.4808 19.5615 14.0648 19.8771 13.8376C20.1927 13.6105 20.605 13.3145 20.7933 13.18ZM11.3446 17.7211C11.4528 17.6487 11.8635 17.3645 12.7882 16.7218C13.1546 16.4671 13.467 16.2613 13.4823 16.2646C13.4975 16.2678 13.7974 16.4773 14.1486 16.7302C14.4998 16.9832 14.8194 17.2025 14.8589 17.2177C14.9502 17.2529 15.0498 17.2528 15.1413 17.2177C15.1808 17.2024 15.5002 16.9834 15.851 16.7308C16.2018 16.4783 16.4982 16.2678 16.5096 16.263C16.5277 16.2554 16.9629 16.5503 18.2576 17.4473C18.6005 17.6848 19.0739 18.0112 20.0437 18.6788C20.3288 18.875 20.9201 19.283 21.3578 19.5854L22.1537 20.1352L22.1522 20.2132C22.1501 20.3249 22.0479 20.5367 21.9283 20.6777C21.8124 20.8141 21.6266 20.9266 21.4618 20.9599C21.3966 20.9731 19.1573 20.9801 15 20.9801C10.8427 20.9801 8.6034 20.9731 8.53824 20.9599C8.37336 20.9266 8.18757 20.8141 8.07168 20.6777C7.95945 20.5454 7.8579 20.3423 7.84314 20.2204L7.83366 20.1423L8.33046 19.8003C8.6037 19.6122 8.99382 19.3431 9.19743 19.2023C10.2989 18.4406 11.263 17.7756 11.3446 17.7211Z" fill="#3F4D63"/>
</svg>
