<svg width="85" height="85" viewBox="0 0 85 85" fill="none" xmlns="http://www.w3.org/2000/svg">
<path d="M53.4791 6.4104L43.4562 16.4333C40.7291 19.1958 40.7291 23.6937 43.4562 26.4562L48.4499 31.45L32.3354 47.5646L22.3479 37.5417L17.3187 42.5C-0.212551 60.2083 12.3958 72.6042 12.3958 72.6042C12.3958 72.6042 24.7916 85 42.4999 67.6104L47.4937 62.6167L37.577 52.7L53.6562 36.6208L58.5791 41.5437C61.3416 44.2708 65.8395 44.2708 68.602 41.5437L78.6249 31.5208L53.4791 6.4104ZM63.502 36.4083L58.6145 31.5208L53.5145 26.4208L48.5562 21.4625L53.5499 16.4687L68.5312 31.45L63.502 36.4083Z" fill="white"/>
</svg>
