<svg width="30" height="31" viewBox="0 0 30 31" fill="none" xmlns="http://www.w3.org/2000/svg">
<path fill-rule="evenodd" clip-rule="evenodd" d="M15 30.5801C23.2842 30.5801 30 23.8643 30 15.5801C30 7.29588 23.2842 0.580078 15 0.580078C6.7158 0.580078 0 7.29588 0 15.5801C0 23.8643 6.7158 30.5801 15 30.5801ZM21.5931 10.1633C21.7089 8.84928 20.3211 9.39048 20.3211 9.39048C19.2966 9.81468 18.24 10.2455 17.172 10.6811C13.86 12.032 10.4388 13.4276 7.5243 14.8013C5.9439 15.3809 6.8691 15.9605 6.8691 15.9605L9.3744 16.7336C10.5309 17.0816 11.1474 16.6949 11.1474 16.6949L16.5438 13.0235C18.471 11.7095 18.0084 12.7916 17.5458 13.2554L13.4988 17.12C12.882 17.6612 13.1904 18.125 13.4601 18.3569C14.2251 19.0316 16.1061 20.2661 16.9272 20.8049C17.1408 20.945 17.2827 21.0383 17.3148 21.0623C17.5074 21.2168 18.5481 21.9125 19.242 21.758C19.9359 21.6032 20.013 20.7143 20.013 20.7143L20.9379 14.6465C21.0765 13.5932 21.2358 12.5807 21.363 11.7719C21.483 11.0081 21.5745 10.4264 21.5931 10.1633Z" fill="#3F4D63"/>
</svg>
