<svg width="30" height="31" viewBox="0 0 30 31" fill="none" xmlns="http://www.w3.org/2000/svg">
<path fill-rule="evenodd" clip-rule="evenodd" d="M15 30.5801C23.2843 30.5801 30 23.8643 30 15.5801C30 7.29582 23.2843 0.580078 15 0.580078C6.71574 0.580078 0 7.29582 0 15.5801C0 23.8643 6.71574 30.5801 15 30.5801ZM9.71004 9.68856C10.1687 9.23058 10.4039 9.03633 10.546 8.99811C10.7145 8.95278 10.8616 8.99223 11.015 9.12399C11.1449 9.23544 11.4731 9.57147 11.6978 9.82296C12.3579 10.5619 13.1624 11.5708 13.2751 11.801C13.3092 11.8707 13.3125 11.8904 13.3067 11.9898C13.2961 12.173 13.2588 12.2304 13.0138 12.4404C12.623 12.7753 12.0241 13.4018 11.8147 13.6945C11.6777 13.8861 11.6738 14.0062 11.7974 14.225C11.9025 14.4109 12.4134 15.0836 12.7735 15.5101C13.3763 16.2241 14.0748 16.891 14.7532 17.4001C15.2574 17.7786 15.9664 18.2147 16.4411 18.4383C16.7803 18.5982 16.8863 18.5892 17.1037 18.3821C17.3121 18.1835 17.5574 17.8631 17.9684 17.2528C18.1022 17.054 18.2322 16.8742 18.2571 16.8531C18.3331 16.7889 18.419 16.7585 18.5442 16.7517C18.6244 16.7474 18.6782 16.7519 18.7217 16.7667C18.8053 16.7952 19.0232 16.9314 19.908 17.5084C20.3186 17.7761 20.7736 18.071 20.9193 18.1638C21.7445 18.6896 21.8361 18.7602 21.8787 18.9035C21.9356 19.0948 21.8882 19.2177 21.6189 19.5771C21.2846 20.0233 20.722 20.626 20.3022 20.9876C19.9616 21.281 19.5239 21.576 19.0923 21.803L18.9056 21.9011L18.7167 21.901C18.166 21.9006 17.6466 21.7908 16.8517 21.5066C14.9901 20.8411 13.3395 19.8669 11.8941 18.5808C11.6229 18.3395 10.9929 17.7046 10.7582 17.4361C9.97611 16.5412 9.38715 15.6685 8.87844 14.6507C8.5119 13.9173 8.17506 13.0662 8.11827 12.7299C8.03505 12.2372 8.23776 11.5927 8.69271 10.9033C8.96496 10.4908 9.26319 10.1347 9.71004 9.68856Z" fill="#3F4D63"/>
</svg>
